<svg width="61" height="58" viewBox="0 0 61 58" fill="none" xmlns="http://www.w3.org/2000/svg">
<ellipse cx="30.3516" cy="28.875" rx="30.3516" ry="28.875" fill="#028960"/>
<path d="M24.3104 17.7852C24.3929 17.7852 24.4724 17.8182 24.5309 17.8752L27.4394 20.7852H23.9999V18.0957C23.9999 17.9247 24.1394 17.7852 24.3104 17.7852ZM22.4999 18.0957V20.7852H20.9984C20.8927 20.7851 20.7881 20.8074 20.6916 20.8506C20.5951 20.8938 20.5088 20.9569 20.4384 21.0358C20.368 21.1147 20.3151 21.2076 20.2831 21.3084C20.2512 21.4092 20.2409 21.5156 20.2529 21.6207L22.2749 39.1302C22.3595 39.861 22.7098 40.5353 23.259 41.0248C23.8082 41.5143 24.5182 41.7849 25.2539 41.7852H34.7444C35.4802 41.7849 36.1901 41.5143 36.7394 41.0248C37.2886 40.5353 37.6388 39.861 37.7234 39.1302L39.7439 21.6207C39.756 21.5156 39.7457 21.4092 39.7137 21.3084C39.6818 21.2076 39.6288 21.1147 39.5584 21.0358C39.488 20.9569 39.4018 20.8938 39.3052 20.8506C39.2087 20.8074 39.1042 20.7851 38.9984 20.7852H37.4999V18.5352C37.4999 17.9384 37.2629 17.3661 36.8409 16.9442C36.419 16.5222 35.8467 16.2852 35.2499 16.2852H30.7499C30.1532 16.2852 29.5809 16.5222 29.1589 16.9442C28.737 17.3661 28.4999 17.9384 28.4999 18.5352V19.7247L25.5899 16.8147C25.3366 16.5616 25.0138 16.3893 24.6625 16.3197C24.3112 16.25 23.9472 16.2861 23.6164 16.4234C23.2856 16.5607 23.003 16.793 22.8043 17.0909C22.6055 17.3889 22.4996 17.7375 22.4999 18.0957ZM29.9999 20.7852V18.5352C29.9999 18.3363 30.079 18.1455 30.2196 18.0048C30.3603 17.8642 30.551 17.7852 30.7499 17.7852H35.2499C35.4488 17.7852 35.6396 17.8642 35.7803 18.0048C35.9209 18.1455 35.9999 18.3363 35.9999 18.5352V20.7852H29.9999ZM21.8399 22.2852H38.1569L36.2339 38.9577C36.1916 39.3231 36.0165 39.6602 35.7419 39.905C35.4673 40.1497 35.1123 40.285 34.7444 40.2852H25.2539C24.8861 40.285 24.5311 40.1497 24.2565 39.905C23.9818 39.6602 23.8067 39.3231 23.7644 38.9577L21.8399 22.2852ZM31.9499 26.4102C31.7525 26.0681 31.4684 25.7841 31.1264 25.5867C30.7844 25.3892 30.3964 25.2853 30.0014 25.2853C29.6065 25.2853 29.2185 25.3892 28.8765 25.5867C28.5345 25.7841 28.2504 26.0681 28.0529 26.4102L27.3749 27.5832C27.277 27.7553 27.2512 27.9592 27.3031 28.1504C27.355 28.3415 27.4804 28.5043 27.6519 28.6034C27.8234 28.7024 28.0272 28.7296 28.2186 28.6789C28.4101 28.6283 28.5738 28.504 28.6739 28.3332L29.3519 27.1602C29.4178 27.0462 29.5124 26.9515 29.6265 26.8857C29.7405 26.8198 29.8698 26.7852 30.0014 26.7852C30.1331 26.7852 30.2624 26.8198 30.3764 26.8857C30.4904 26.9515 30.5851 27.0462 30.6509 27.1602L31.3274 28.3332C31.4269 28.5056 31.5908 28.6315 31.7831 28.6831C31.9753 28.7347 32.1802 28.7079 32.3527 28.6084C32.5251 28.509 32.651 28.3451 32.7026 28.1528C32.7543 27.9605 32.7274 27.7556 32.6279 27.5832L31.9499 26.4102ZM33.2489 31.6602L33.0869 31.3812C32.9875 31.2087 32.9606 31.0038 33.0122 30.8115C33.0638 30.6193 33.1897 30.4554 33.3622 30.3559C33.5346 30.2565 33.7395 30.2296 33.9318 30.2812C34.1241 30.3328 34.288 30.4587 34.3874 30.6312L34.5479 30.9102C34.7455 31.2523 34.8494 31.6404 34.8494 32.0355C34.8493 32.4306 34.7452 32.8187 34.5476 33.1608C34.3499 33.5029 34.0657 33.7869 33.7234 33.9843C33.3812 34.1816 32.993 34.2854 32.5979 34.2852H31.4999C31.301 34.2852 31.1103 34.2061 30.9696 34.0655C30.829 33.9248 30.7499 33.7341 30.7499 33.5352C30.7499 33.3363 30.829 33.1455 30.9696 33.0048C31.1103 32.8642 31.301 32.7852 31.4999 32.7852H32.5979C32.7296 32.7852 32.8589 32.7505 32.9729 32.6847C33.0869 32.6188 33.1816 32.5242 33.2474 32.4102C33.3133 32.2961 33.3479 32.1668 33.3479 32.0352C33.3479 31.9035 33.3133 31.7742 33.2474 31.6602M28.4999 32.7852C28.6988 32.7852 28.8896 32.8642 29.0303 33.0048C29.1709 33.1455 29.2499 33.3363 29.2499 33.5352C29.2499 33.7341 29.1709 33.9248 29.0303 34.0655C28.8896 34.2061 28.6988 34.2852 28.4999 34.2852H27.4019C27.0069 34.2854 26.6187 34.1816 26.2764 33.9843C25.9342 33.7869 25.6499 33.5029 25.4523 33.1608C25.2546 32.8187 25.1506 32.4306 25.1505 32.0355C25.1504 31.6404 25.2544 31.2523 25.4519 30.9102L25.6139 30.6312C25.7141 30.4603 25.8778 30.336 26.0692 30.2854C26.2607 30.2348 26.4644 30.2619 26.636 30.361C26.8075 30.46 26.9329 30.6228 26.9847 30.814C27.0366 31.0051 27.0108 31.209 26.9129 31.3812L26.7524 31.6602C26.6866 31.7742 26.652 31.9035 26.652 32.0352C26.652 32.1668 26.6866 32.2961 26.7524 32.4102C26.8183 32.5242 26.9129 32.6188 27.0269 32.6847C27.141 32.7505 27.2703 32.7852 27.4019 32.7852H28.4999Z" fill="#9BF3D6"/>
</svg>
