<svg width="62" height="58" viewBox="0 0 62 58" fill="none" xmlns="http://www.w3.org/2000/svg">
<ellipse cx="30.8047" cy="29.1249" rx="30.3516" ry="28.875" fill="#028960"/>
<path d="M28.6667 22.1517V18.535C28.6667 17.835 29.1334 17.3683 29.8334 17.3683H32.1667C32.8667 17.3683 33.3334 17.835 33.3334 18.535V22.1517" stroke="#9BF3D6" stroke-width="2.33333" stroke-linecap="round" stroke-linejoin="round"/>
<path d="M36.8334 31.9517C36.8334 30.5517 35.7834 29.385 34.5001 29.1517V29.035C35.1189 29.035 35.7124 28.7892 36.15 28.3516C36.5876 27.914 36.8334 27.3205 36.8334 26.7017C36.8334 25.464 36.3418 24.277 35.4666 23.4018C34.5914 22.5267 33.4044 22.035 32.1667 22.035H29.8334C28.5957 22.035 27.4088 22.5267 26.5336 23.4018C25.6584 24.277 25.1667 25.464 25.1667 26.7017C25.1667 27.3205 25.4126 27.914 25.8502 28.3516C26.2878 28.7892 26.8812 29.035 27.5001 29.035V29.1517C26.8942 29.3284 26.3621 29.6968 25.9834 30.2017C25.6048 30.7065 25.4001 31.3206 25.4001 31.9517C25.4001 32.5827 25.6048 33.1968 25.9834 33.7017C26.3621 34.2065 26.8942 34.575 27.5001 34.7517V34.8683C26.8812 34.8683 26.2878 35.1142 25.8502 35.5517C25.4126 35.9893 25.1667 36.5828 25.1667 37.2017V38.3683C25.1667 38.9872 25.4126 39.5807 25.8502 40.0182C26.2878 40.4558 26.8812 40.7017 27.5001 40.7017H34.5001C35.1189 40.7017 35.7124 40.4558 36.15 40.0182C36.5876 39.5807 36.8334 38.9872 36.8334 38.3683V37.2017C36.8334 36.5828 36.5876 35.9893 36.15 35.5517C35.7124 35.1142 35.1189 34.8683 34.5001 34.8683V34.7517C35.7834 34.5183 36.8334 33.3517 36.8334 31.9517Z" stroke="#9BF3D6" stroke-width="2.33333" stroke-linecap="round" stroke-linejoin="round"/>
</svg>
