<svg width="61" height="58" viewBox="0 0 61 58" fill="none" xmlns="http://www.w3.org/2000/svg">
<ellipse cx="30.3516" cy="28.875" rx="30.3516" ry="28.875" fill="#028960"/>
<path d="M31.925 41.5H24.1625C23.25 41.5 22.5 40.75 22.5 39.8375V20.6625C22.5 19.75 23.25 19 24.1625 19H26.25V16.5H33.75V19H35.8375C36.75 19 37.5 19.75 37.5 20.6625V29C36.625 29 35.7875 29.1625 35 29.4375V21.5H25V39H30.4375C30.7625 39.9375 31.25 40.775 31.925 41.5ZM37.5 30.25L40.3125 33.0625L37.5 35.875V34C35.1875 34 33.675 36.45 34.7 38.525L33.3375 39.8875C31.1375 36.5625 33.5125 32.125 37.5 32.125V30.25ZM37.5 44L34.6875 41.1875L37.5 38.375V40.25C39.8125 40.25 41.325 37.8 40.3 35.725L41.6625 34.3625C43.8625 37.6875 41.4875 42.125 37.5 42.125V44Z" fill="#9BF3D6"/>
</svg>
