<svg width="61" height="58" viewBox="0 0 61 58" fill="none" xmlns="http://www.w3.org/2000/svg">
<ellipse cx="30.3516" cy="28.875" rx="30.3516" ry="28.875" fill="#028960"/>
<path d="M19.6875 20.25H26.475C26.8865 20.2501 27.2916 20.1486 27.6545 19.9545C28.0173 19.7604 28.3266 19.4798 28.555 19.1375L29.57 17.6125C29.7984 17.2702 30.1077 16.9896 30.4705 16.7955C30.8334 16.6014 31.2385 16.4999 31.65 16.5H37.26C37.7849 16.4999 38.2965 16.665 38.7224 16.9719C39.1482 17.2788 39.4666 17.712 39.6325 18.21L40.3125 20.25M42.1875 20.25H25.9375" stroke="#9BF3D6" stroke-width="2" stroke-linecap="round" stroke-linejoin="round"/>
<path d="M40.3125 20.25L39.6875 28.375M21.5625 20.25L22.3188 33.42C22.5113 36.6325 22.6088 38.24 23.4113 39.395C23.8075 39.9675 24.3187 40.4487 24.9112 40.8112C25.6387 41.2562 26.5163 41.4313 27.8125 41.5M29.6875 33.3725L31.1075 35.205C31.3654 34.2422 31.9052 33.3785 32.6576 32.7247C33.41 32.0709 34.3406 31.6569 35.33 31.5358C36.3193 31.4148 37.3223 31.5922 38.2101 32.0453C39.0979 32.4984 39.8301 33.2065 40.3125 34.0787M42.1875 39.6225L40.7675 37.7925C40.5116 38.7478 39.9782 39.6058 39.2347 40.2579C38.4912 40.91 37.571 41.327 36.5905 41.4561C35.61 41.5853 34.6132 41.4207 33.7263 40.9833C32.8393 40.5459 32.102 39.8552 31.6075 38.9988" stroke="#9BF3D6" stroke-width="2" stroke-linecap="round" stroke-linejoin="round"/>
</svg>
